<mxfile host="app.diagrams.net" modified="2023-05-16T12:38:51.222Z" agent="Mozilla/5.0 (X11; Linux x86_64) AppleWebKit/537.36 (KHTML, like Gecko) Chrome/113.0.0.0 Safari/537.36" version="21.2.9" etag="GFyz9TDcXxWfODssY6rm" type="github">
  <diagram name="Page-1" id="yaCgTmtw-cFD3y4r-G1U">
    <mxGraphModel>
      <root>
        <mxCell id="0" />
        <mxCell id="1" parent="0" />
      </root>
    </mxGraphModel>
  </diagram>
</mxfile>
